<svg width="567" height="341" viewBox="0 0 567 341" fill="none" xmlns="http://www.w3.org/2000/svg">
<rect x="32" y="36.5" width="510" height="221" fill="#A31D1D"/>
<path d="M0.5 240.5L17 224.5H552L566 240.5H0.5Z" fill="#6D2323"/>
<path d="M0.5 258V240L566 240.5V258H0.5Z" fill="#FFE500"/>
<path d="M54.5 322.5C5.29997 322.5 0.5 279.5 0.5 258H566C568 293.6 533 316 515.5 322.5H54.5Z" fill="#6D2323"/>
<path d="M62.5 340.5V322H89V340.5H62.5Z" fill="#6D2323"/>
<path d="M472.5 340.5V322H499V340.5H472.5Z" fill="#6D2323"/>
<circle cx="223" cy="166.5" r="14" fill="#6D2323"/>
<circle cx="130" cy="177.5" r="20" fill="#6D2323"/>
<circle cx="14" cy="14" r="14" transform="matrix(-1 0 0 1 415.5 152.5)" fill="#6D2323"/>
<circle cx="130" cy="177.5" r="17" fill="#FFE500"/>
<path d="M115 175.5H130V177.5H115V175.5Z" fill="#6D2323"/>
<path d="M218.5 153.5L220.5 146H239C238 152.167 236.924 164.898 235 160.5C231.938 153.5 224 152 218.5 153.5Z" fill="#FFE500"/>
<path d="M406 153.5L404 146H385.5C386.5 152.167 387.576 164.898 389.5 160.5C392.562 153.5 400.5 152 406 153.5Z" fill="#FFE500"/>
<path d="M251 169C253 159 242.333 151.667 237.5 149.5V153C250.5 156 248.5 181.5 251 169Z" fill="#FFE500"/>
<path d="M373.5 169C371.5 159 381.667 151.667 386.5 149.5L387 153C374 156 376 181.5 373.5 169Z" fill="#FFE500"/>
<path d="M160 123.5V107.5C165.2 79.9 187.167 70 197.5 68.5C210.167 66.6667 241.9 64.1 267.5 68.5C293.1 72.9 302.833 96.3334 304.5 107.5V123.5C302.5 127.9 289.667 130 283.5 130.5C253.833 130.167 191.5 129.7 179.5 130.5C167.5 131.3 161.5 126.167 160 123.5Z" fill="#6D2323"/>
<path d="M464.5 123.5V107.5C459.3 79.9 437.333 70 427 68.5C414.333 66.6667 382.6 64.1 357 68.5C331.4 72.9 321.667 96.3334 320 107.5V123.5C322 127.9 334.833 130 341 130.5C370.667 130.167 433 129.7 445 130.5C457 131.3 463 126.167 464.5 123.5Z" fill="#6D2323"/>
<path d="M198 137V130H262.5V137H198Z" fill="#6D2323"/>
<path d="M426.5 137V130H362V137H426.5Z" fill="#6D2323"/>
<path d="M215 146C207.4 146 205.833 140 206 137H255C256.2 141.4 252.5 144.833 250.5 146H215Z" fill="#6D2323"/>
<path d="M409.5 146C417.1 146 418.667 140 418.5 137H369.5C368.3 141.4 372 144.833 374 146H409.5Z" fill="#6D2323"/>
<path d="M35 0V4H540V0H563V66.5L540 113H467L483.5 66.5H145.5L153 113H28L6 61L10 0H35Z" fill="#6D2323"/>
<path d="M120 136.5C115.98 136.5 112 137.5 112 140C112 143 127.5 143 127.5 139.5C127.5 138 125 136.5 120 136.5Z" fill="#6D2323"/>
<path d="M117.5 112.5L117 104.5H124V112.5H117.5Z" fill="#FFE500"/>
<path d="M111.5 104.5V92.5C118.489 90.5997 122.631 90.5166 130.5 92.5V104.5H111.5Z" fill="#FFE500"/>
<path d="M17 224.5L22.5 97L47 106V224.5H17Z" fill="#6D2323"/>
<path d="M552 224.5L546.5 97L522 106V224.5H552Z" fill="#6D2323"/>
<path d="M72.5 18H42V66.5C42 70.1 45.3333 70.6667 47 70.5H67C69.8 70.5 71.8333 67.8333 72.5 66.5V18Z" fill="#FFE500"/>
<path d="M112 122.5C112 120.1 115.667 114.5 117.5 112H124L127.5 122.5V140C127.5 139 125 137 120.5 136.5C116.9 136.1 113.167 138.667 112 140V122.5Z" fill="#FFE500"/>
<path d="M499 19.5H529.5V68C529.5 71.6 526.167 72.1667 524.5 72H504.5C501.7 72 499.667 69.3333 499 68V19.5Z" fill="#FFE500"/>
<path d="M56 57.5C46 56.3 45.8333 34 47 23C52.9999 17 59.5 20.5 62 23C64.1667 35 66 58.7 56 57.5Z" fill="#6D2323"/>
<path d="M515.5 59C525.5 57.8 525.667 35.5 524.5 24.5C518.5 18.5 512 22 509.5 24.5C507.333 36.5 505.5 60.2 515.5 59Z" fill="#6D2323"/>
<path d="M47 92L45.5 73H73L80.5 92H47Z" fill="#FFE500"/>
<path d="M524.5 93.5L526 74.5H498.5L491 93.5H524.5Z" fill="#FFE500"/>
<path d="M54 103.5V89.5H68.5V103.5H54Z" fill="#FFE500"/>
<path d="M514.5 103.5V89.5H500V103.5H514.5Z" fill="#FFE500"/>
<path d="M57.5 130V101.5H63V130H57.5Z" fill="#FFE500"/>
<path d="M510.5 130V101.5H505V130H510.5Z" fill="#FFE500"/>
<path d="M48.9999 137.5C49.3999 130.7 54.4999 129.667 56.9999 130H62.5V137.5H59V156.5H48.9999C48.8332 153 48.5999 144.3 48.9999 137.5Z" fill="#6D2323"/>
<path d="M519 137.5C518.6 130.7 513.5 129.667 511 130H505.5V137.5H509V156.5H519C519.167 153 519.4 144.3 519 137.5Z" fill="#6D2323"/>
<path d="M51 213.438V156H57V213.438C57 214.774 56.4545 217 53.7273 217C51.5455 217 51 214.625 51 213.438Z" fill="#FFE500"/>
<path d="M517 213.438V156H512V213.438C512 214.774 512.455 217 514.727 217C516.545 217 517 214.625 517 213.438Z" fill="#FFE500"/>
<path d="M35 15.5V2.5H540V15.5H35Z" fill="#FFE500"/>
</svg>
