<svg width="439" height="317" viewBox="0 0 439 317" fill="none" xmlns="http://www.w3.org/2000/svg">
<mask id="path-1-inside-1_19_43" fill="white">
<path d="M389.98 54.6905C406.518 50.2593 423.516 60.0733 427.947 76.6108C432.378 93.1482 422.564 110.147 406.027 114.578C389.49 119.009 372.491 109.195 368.06 92.6576C363.629 76.1201 373.443 59.1217 389.98 54.6905ZM392.827 65.3157C382.158 68.1745 375.826 79.1412 378.685 89.8106C381.544 100.48 392.511 106.812 403.18 103.953C413.849 101.094 420.181 90.1271 417.322 79.4578C414.463 68.7885 403.497 62.4568 392.827 65.3157Z"/>
</mask>
<path d="M389.98 54.6905C406.518 50.2593 423.516 60.0733 427.947 76.6108C432.378 93.1482 422.564 110.147 406.027 114.578C389.49 119.009 372.491 109.195 368.06 92.6576C363.629 76.1201 373.443 59.1217 389.98 54.6905ZM392.827 65.3157C382.158 68.1745 375.826 79.1412 378.685 89.8106C381.544 100.48 392.511 106.812 403.18 103.953C413.849 101.094 420.181 90.1271 417.322 79.4578C414.463 68.7885 403.497 62.4568 392.827 65.3157Z" fill="#6D2323"/>
<path d="M389.98 54.6905L390.498 56.6223C405.968 52.477 421.87 61.6579 426.015 77.1284L427.947 76.6108L429.879 76.0931C425.162 58.4888 407.067 48.0415 389.463 52.7586L389.98 54.6905ZM427.947 76.6108L426.015 77.1284C430.161 92.5989 420.98 108.501 405.509 112.646L406.027 114.578L406.545 116.51C424.149 111.793 434.596 93.6975 429.879 76.0931L427.947 76.6108ZM406.027 114.578L405.509 112.646C390.039 116.791 374.137 107.61 369.992 92.1399L368.06 92.6576L366.128 93.1752C370.845 110.78 388.94 121.227 406.545 116.51L406.027 114.578ZM368.06 92.6576L369.992 92.1399C365.846 76.6694 375.027 60.7676 390.498 56.6223L389.98 54.6905L389.463 52.7586C371.858 57.4757 361.411 75.5708 366.128 93.1752L368.06 92.6576ZM392.827 65.3157L392.31 63.3838C380.573 66.5285 373.609 78.5919 376.753 90.3282L378.685 89.8106L380.617 89.2929C378.044 79.6905 383.742 69.8205 393.345 67.2475L392.827 65.3157ZM378.685 89.8106L376.753 90.3282C379.898 102.064 391.961 109.029 403.698 105.885L403.18 103.953L402.662 102.021C393.06 104.594 383.19 98.8953 380.617 89.2929L378.685 89.8106ZM403.18 103.953L403.698 105.885C415.434 102.74 422.399 90.6764 419.254 78.9402L417.322 79.4578L415.39 79.9754C417.963 89.5778 412.265 99.4479 402.662 102.021L403.18 103.953ZM417.322 79.4578L419.254 78.9402C416.109 67.2039 404.046 60.2391 392.31 63.3838L392.827 65.3157L393.345 67.2475C402.947 64.6746 412.817 70.373 415.39 79.9754L417.322 79.4578Z" fill="#FFE500" mask="url(#path-1-inside-1_19_43)"/>
<path d="M246.451 260.864C255.94 258.321 264.984 257.904 271.918 259.243C278.926 260.595 283.433 263.652 284.529 267.743C284.836 268.888 284.856 269.654 284.706 270.204C284.567 270.714 284.249 271.155 283.603 271.593C282.93 272.05 281.948 272.47 280.564 272.92C279.197 273.364 277.519 273.814 275.475 274.362C269.083 275.517 260.791 278.297 251.77 280.714C242.748 283.131 234.177 284.869 228.064 287.065C226.021 287.613 224.342 288.063 222.937 288.361C221.513 288.663 220.453 288.791 219.641 288.732C218.862 288.675 218.367 288.453 217.991 288.08C217.587 287.679 217.221 287.006 216.914 285.86C215.818 281.77 218.193 276.869 223.586 272.193C228.921 267.567 236.962 263.406 246.451 260.864Z" fill="#6D2323" stroke="#FFE500" stroke-width="2"/>
<path d="M245.201 265.858C75.1763 311.416 12.4131 191.905 6.99998 127.27L387 25.2705C409.771 88.3599 420.033 219.012 245.201 265.858Z" fill="#6D2323" stroke="#FFE500" stroke-width="2"/>
<path d="M190.546 52.2238C243.064 38.1517 291.344 28.2264 326.942 23.5515C344.748 21.2131 359.341 20.1939 369.69 20.6149C374.872 20.8257 378.93 21.3961 381.776 22.3112C384.684 23.2459 386.014 24.434 386.338 25.6434C386.662 26.8529 386.104 28.5469 384.054 30.8102C382.046 33.026 378.817 35.5486 374.435 38.3223C365.682 43.8617 352.535 50.2754 335.945 57.1533C302.78 70.9035 256.005 86.448 203.487 100.52C150.969 114.592 102.689 124.518 67.0916 129.192C49.2857 131.531 34.6928 132.55 24.3433 132.129C19.161 131.918 15.1037 131.348 12.2571 130.433C9.34949 129.498 8.01929 128.31 7.69522 127.1C7.37115 125.891 7.9291 124.197 9.97976 121.934C11.9874 119.718 15.216 117.195 19.5986 114.422C28.351 108.882 41.4985 102.469 58.088 95.5906C91.2538 81.8404 138.029 66.2959 190.546 52.2238Z" fill="#A31D1D" stroke="#FFE500" stroke-width="2"/>
<path d="M122 73.4186L126 71.9999L218.5 45.9998L220.5 45.4998L231.5 60.4999L123 84.4999L122 73.4186Z" fill="#A31D1D"/>
</svg>
