<svg width="615" height="851" viewBox="0 0 615 851" fill="none" xmlns="http://www.w3.org/2000/svg">
<path d="M343 504C511.8 419.6 600 133.5 623 1C638.667 263.167 663.2 795.2 636 826C602 864.5 499 848.5 483 826C467 803.5 484.5 734 439.5 705.5C394.5 677 280.5 789 266 688C254.642 608.885 91.1998 615.033 5.84668 628.622C3.94281 628.955 2.15973 629.248 0.5 629.5C2.24531 629.204 4.02825 628.912 5.84668 628.622C54.2238 620.154 180.592 585.204 343 504Z" fill="#A31D1D" stroke="#FFE500" stroke-width="2"/>
<path d="M270 706C342.333 661 512 572 566 384" stroke="#FFE500" stroke-width="2"/>
<path d="M477.417 813.545C506.5 793.5 543 749.5 564.5 689" stroke="#FFE500" stroke-width="2"/>
</svg>
