<svg width="126" height="431" viewBox="0 0 126 431" fill="none" xmlns="http://www.w3.org/2000/svg">
<path d="M24.258 125.273L0 8.96906C9.74948 30.7432 24.6012 83.8167 30.8084 107.632C31.1738 108.641 32.3502 110.565 34.1327 110.193C35.9151 109.822 35.7411 106.758 35.4313 105.273L14.7051 5.90195L43.4522 103.6C43.824 105.382 45.1728 108.728 47.5939 107.851C50.0149 106.974 49.7035 103.846 49.2451 102.391L26.7365 3.39249L56.8205 100.811C57.2788 102.266 58.6411 105.081 60.4236 104.71C62.206 104.338 62.032 101.274 61.7222 99.7889L40.9959 0.418325C51.773 33.51 73.8623 101.814 76.0033 110.295C78.1443 118.776 72.1364 143.031 68.8648 154.098C66.7743 160.424 67.9742 189.066 89.4981 253.023C111.022 316.981 122.156 373.93 125.033 394.41C126.181 407.345 125.027 432.726 111.227 430.769C97.4265 428.811 86.7599 375.888 83.1517 349.671C76.5702 312.914 62.5362 231.212 59.0527 198.459C54.6983 157.518 28.0687 143.543 24.258 125.273Z" fill="#E5D0AC"/>
</svg>
