<svg width="66" height="65" viewBox="0 0 66 65" fill="none" xmlns="http://www.w3.org/2000/svg">
<path d="M15.0351 29.5447C15.4842 14.1606 25 8.81226 33 8.81226C40.5 8.81226 50.2351 14.1606 50.6842 29.5447C50.6842 35.7544 53.5474 47.3324 65 43.9672V50.277H33H1V43.9672C5.49123 45.5697 14.586 44.9287 15.0351 29.5447Z" fill="#A31D1D" stroke="#FEF9E1" stroke-width="0.5"/>
<path d="M33.0002 52.0295C36.2569 52.0297 38.925 54.861 38.925 58.3899C38.925 61.9188 36.2569 64.75 33.0002 64.7502C29.7435 64.7502 27.0745 61.9189 27.0745 58.3899C27.0745 54.8609 29.7435 52.0295 33.0002 52.0295Z" fill="#A31D1D" stroke="#FEF9E1" stroke-width="0.5"/>
<path d="M56.2981 1C49.5613 3.40376 44.9035 9.59546 43.5 12.5C49 17.5 49.5 22 50.1227 24.4366C56.635 15.5427 56.9531 4.80595 56.2981 1Z" fill="#A31D1D" stroke="#FEF9E1" stroke-width="0.5"/>
<path d="M58.1121 15.7229C53.7973 17.2638 50.3989 19.6381 49.5 21.5C50.9035 26.3691 50.4034 31.6478 50.9648 32.8497C55.1358 27.1484 58.5316 18.1626 58.1121 15.7229Z" fill="#A31D1D" stroke="#FEF9E1" stroke-width="0.5"/>
<path d="M47.3158 16.324L48.6491 14.1456M52.6491 7.61035L49.9825 11.9672M49.9825 11.9672L52.6491 11.216M49.9825 11.9672L48.6491 14.1456M48.6491 14.1456L47.8772 11.9672" stroke="#FEF9E1" stroke-width="0.5"/>
<path d="M50.9648 25.9389L52.3684 24.1361M56.0175 19.0281L53.7719 22.2716M53.7719 22.2716H55.1754M53.7719 22.2716L52.3684 24.1361M52.3684 24.1361L52.6491 22.0328" stroke="#FEF9E1" stroke-width="0.5"/>
</svg>
