<svg width="599" height="923" viewBox="0 0 599 923" fill="none" xmlns="http://www.w3.org/2000/svg">
<rect x="17.3867" y="96.7983" width="374" height="850" transform="rotate(-15 17.3867 96.7983)" fill="#6D2323"/>
<path d="M3.10583 113.048C1.39053 106.647 5.18952 100.067 11.5911 98.3512L361.256 4.65871L581.252 825.696L219.996 922.494L3.10583 113.048Z" fill="#A31D1D"/>
<path d="M233.744 423.948L233.445 422.831C234.423 422.537 235.052 422.169 235.333 421.727C235.587 421.346 235.581 420.663 235.317 419.677L232.745 410.078C232.492 409.132 232.175 408.554 231.795 408.343C231.354 408.105 230.693 408.094 229.812 408.308L229.513 407.191C230.863 406.797 232.232 406.209 233.618 405.428L234.383 408.28C235.362 405.98 236.813 404.572 238.735 404.057C240.817 403.499 242.574 404.198 244.004 406.155C244.969 403.557 246.447 401.99 248.439 401.457C249.798 401.093 251.091 401.312 252.32 402.115C253.603 402.958 254.492 404.305 254.988 406.156L257.05 413.853C257.315 414.839 257.672 415.45 258.124 415.685C258.547 415.895 259.235 415.889 260.189 415.665L260.488 416.782L253.47 418.663L253.171 417.546C254.086 417.258 254.685 416.898 254.968 416.466C255.222 416.085 255.217 415.402 254.953 414.416L253.133 407.624C252.677 405.923 252.023 404.729 251.17 404.041C250.314 403.343 249.338 403.141 248.241 403.435C246.672 403.855 245.562 405.387 244.911 408.031L247.18 416.498C247.431 417.434 247.778 418.026 248.222 418.273C248.643 418.517 249.342 418.529 250.318 418.31L250.618 419.427L243.72 421.275L243.421 420.158C244.386 419.857 244.989 419.469 245.228 418.995C245.431 418.584 245.413 417.932 245.173 417.036L243.353 410.244C242.436 406.823 240.806 405.427 238.461 406.055C236.892 406.476 235.787 408.007 235.146 410.648L237.415 419.115C237.679 420.101 238.037 420.711 238.488 420.946C238.908 421.146 239.577 421.145 240.493 420.943L240.792 422.06L233.744 423.948ZM263.188 406.935L263.253 407.177C263.687 408.797 264.383 410.109 265.343 411.114C266.948 412.798 268.867 413.34 271.101 412.742C273.576 412.078 275.299 410.258 276.27 407.28L277.514 407.998C276.577 411.506 274.529 413.683 271.37 414.53C268.593 415.274 266.165 414.808 264.088 413.132C262.533 411.877 261.448 410.103 260.834 407.809C260.2 405.444 260.295 403.262 261.118 401.262C262.123 398.858 263.884 397.318 266.399 396.644C268.16 396.172 269.828 396.259 271.403 396.905C273.169 397.618 274.53 398.876 275.488 400.679C275.835 401.331 276.107 402.023 276.304 402.758L276.469 403.377L263.188 406.935ZM273.477 402.593C272.938 400.904 272.213 399.707 271.302 399.003C269.953 397.951 268.458 397.646 266.818 398.085C265.278 398.498 264.142 399.508 263.408 401.118C262.823 402.396 262.638 403.837 262.852 405.44L273.477 402.593ZM281.497 411.153L281.198 410.036C282.341 409.676 283.048 409.276 283.319 408.837C283.6 408.395 283.617 407.716 283.372 406.801L280.747 397.006C280.507 396.11 280.154 395.574 279.686 395.397C279.34 395.274 278.583 395.326 277.414 395.553L277.115 394.436C278.906 393.956 280.486 393.312 281.854 392.503L282.643 395.446C283.059 394.343 283.721 393.373 284.629 392.536C285.435 391.802 286.312 391.309 287.257 391.055C289.179 390.54 290.889 390.826 292.388 391.913C293.609 392.804 294.488 394.256 295.028 396.269L296.88 403.181C297.139 404.147 297.502 404.74 297.971 404.959C298.404 405.167 299.217 405.143 300.411 404.888L300.71 406.005L293.058 408.055L292.759 406.938C293.789 406.598 294.446 406.211 294.729 405.78C294.983 405.399 294.98 404.725 294.722 403.759L292.845 396.757C292.443 395.257 291.749 394.155 290.762 393.449C289.813 392.765 288.74 392.583 287.542 392.904C285.651 393.411 284.224 395.028 283.261 397.755L285.53 406.222C285.784 407.168 286.128 407.75 286.564 407.967C287.002 408.195 287.744 408.206 288.789 408.002L289.089 409.119L281.497 411.153ZM316.195 401.856L315.223 399.496C314.13 401.978 312.512 403.506 310.369 404.08C308.115 404.684 306.244 404.22 304.755 402.689C303.863 401.774 303.194 400.486 302.75 398.826L300.821 391.627C300.575 390.711 300.231 390.173 299.789 390.011C299.42 389.883 298.643 389.94 297.457 390.183L297.158 389.066C298.795 388.616 300.385 387.969 301.927 387.125L304.875 398.127C305.331 399.827 306.084 401.028 307.134 401.728C308.054 402.344 309.128 402.487 310.356 402.159C312.318 401.633 313.694 400.029 314.486 397.348L312.14 388.594C311.887 387.648 311.52 387.105 311.04 386.964C310.687 386.853 309.937 386.914 308.792 387.146L308.492 386.029C310.311 385.531 311.906 384.882 313.277 384.083L316.832 397.35C317.142 398.507 317.522 399.241 317.972 399.552C318.33 399.801 319.006 399.83 320.001 399.639L320.3 400.756L316.195 401.856Z" fill="#FFE500"/>
</svg>
