<svg width="131" height="439" viewBox="0 0 131 439" fill="none" xmlns="http://www.w3.org/2000/svg">
<path d="M11.2442 25.0735C20.2627 5.41007 31.8618 0.767267 36.534 0.9038C44.3866 -1.60038 68.3235 4.21275 88.2616 49.8677C108.2 95.5226 92.243 124.491 77.0807 143.632C67.6135 155.584 71.304 176.232 74.3327 185.062L88.7608 240.194C99.6959 279.624 122.941 365.264 128.44 392.388C135.313 426.293 126.053 435.602 124.004 436.946C121.954 438.291 114.732 441.613 104.235 421.911C93.7386 402.21 79.9296 276.819 67.34 207.845C54.7503 138.87 35.6157 161.328 14.1105 130.853C-7.39468 100.379 -0.0288702 49.6529 11.2442 25.0735Z" fill="#E5D0AC"/>
</svg>
